<svg width="1847" height="1583" viewBox="0 0 1847 1583" fill="none" xmlns="http://www.w3.org/2000/svg">
<path d="M1691.5 1341.43C1676.72 1343.45 1666.9 1425.32 1663.5 1425.32C1660.18 1425.32 1759.02 1439.04 1310 1427.6C1308.51 1427.56 1309.01 1428.96 1307.5 1428.92C1306.17 1428.88 1306.5 1428.92 1305 1427.6C1300.5 1427.42 1302.84 1428.95 1301.5 1428.92C1300.5 1428.89 1300.5 1427.34 1299.5 1427.32C1292.88 1427.15 1298.55 1430.3 1291.69 1430.12C1290.45 1429.31 859.233 1439.09 836.977 1437.6C814.721 1436.11 786.141 1434.14 773.47 1433.21C743.8 1431.05 592.714 1431.05 560.314 1433.21C546.64 1434.12 511.865 1435.36 483.037 1435.96C439.527 1436.87 427.717 1436.58 413.546 1434.29C400.095 1432.12 381.954 1431.53 328.18 1431.53C290.621 1431.53 259.891 1432.16 259.891 1432.93C259.891 1433.71 255.022 1435.24 249.075 1436.33C240.775 1437.86 232.343 1437.87 212.817 1436.37C198.824 1435.3 185.605 1433.77 183.438 1432.98C181.275 1432.18 175.213 1431.53 169.971 1431.53C164.729 1431.53 160.44 1430.78 160.44 1429.86C160.44 1428.94 156.711 1428.18 152.153 1428.18C147.594 1428.18 143.865 1427.43 143.865 1426.51C143.865 1425.59 139.203 1424.83 133.506 1424.83C127.808 1424.83 123.146 1424.22 123.146 1423.47C123.146 1421.89 82.8025 1414.19 59.9537 1411.4C46.6108 1409.78 44.4146 1408.6 44.4146 1404.61C44.4146 1400.63 35.1626 1398.05 30.5446 1391.35C25.9266 1384.66 2.8162 1375.34 2.8162 1373.48C2.8162 1371.62 9.15203 1343.27 2.8162 1341.43C-3.51962 1339.58 2.81512 1343.35 2.81512 1269.15C2.81512 1194.95 46.0638 1207.21 48.5584 1207.21C51.0529 1207.21 52.7021 1207.93 52.7021 1208.88C52.7021 1209.84 67.2053 1210.56 87.9242 1210.56C108.643 1210.56 123.146 1209.87 123.146 1208.88C123.146 1207.96 129.673 1207.21 137.649 1207.21C145.626 1207.21 152.153 1206.46 152.153 1205.53C152.153 1204.61 155.907 1203.86 160.498 1203.86C165.085 1203.86 172.08 1203.19 176.037 1202.37C179.995 1201.55 189.757 1199.78 197.734 1198.43C205.711 1197.08 220.628 1194.36 230.884 1192.38C241.14 1190.4 251.864 1188.79 254.711 1188.79C257.562 1188.79 259.891 1188.04 259.891 1187.12C259.891 1186.2 263.62 1185.45 268.178 1185.45C272.736 1185.45 276.466 1184.77 276.466 1183.95C276.466 1183.12 283.46 1182.09 292.005 1181.65C300.553 1181.22 321.529 1179.11 338.622 1176.97C366.986 1173.41 377.296 1173.07 456.72 1173.07C526.977 1173.07 548.073 1173.61 566.248 1175.91C578.625 1177.47 594.832 1178.75 602.257 1178.75C609.687 1178.75 616.789 1179.42 618.045 1180.24C619.296 1181.06 626.867 1182.19 634.865 1182.75C641.913 1183.25 652.901 1184.02 660.87 1184.58L661.905 1184.65L663.908 1184.79C671.885 1185.35 678.411 1186.48 678.411 1187.3C678.411 1188.12 684.938 1188.79 692.915 1188.79C700.891 1188.79 707.418 1189.55 707.418 1190.47C707.418 1191.39 712.548 1192.15 718.813 1192.16C725.079 1192.17 748.856 1194.79 771.646 1197.98C794.437 1201.18 817.17 1203.81 822.163 1203.83C827.156 1203.85 832.394 1204.61 833.803 1205.53C835.212 1206.46 843.711 1207.21 852.694 1207.21C861.678 1207.21 869.025 1207.96 869.025 1208.88C869.025 1209.8 877.263 1210.56 887.328 1210.56C897.393 1210.56 906.29 1211.36 907.102 1212.34C909.153 1214.83 1054.76 1214.87 1060.91 1212.38C1063.4 1211.38 1071.59 1210.56 1079.11 1210.56C1086.63 1210.56 1092.79 1209.8 1092.79 1208.88C1092.79 1207.96 1097.27 1207.21 1102.75 1207.21C1119.85 1207.21 1162.23 1196.13 1195.4 1182.99C1212.9 1176.05 1228.75 1170.38 1230.63 1170.38C1234.41 1170.38 1254.4 1162.7 1254.4 1161.25C1254.4 1159.87 1284.91 1142.84 1288.53 1142.2C1290.27 1141.89 1291.69 1140.2 1291.69 1138.43C1291.69 1136.67 1293.55 1135.22 1295.83 1135.22C1298.11 1135.22 1299.98 1134.09 1299.98 1132.71C1299.98 1131.33 1301.84 1130.2 1304.12 1130.2C1306.4 1130.2 1308.26 1128.97 1308.26 1127.47C1308.26 1124.08 1337.81 1101.74 1342.28 1101.74C1344.09 1101.74 1345.56 1100.24 1345.56 1098.4C1345.56 1096.55 1347.42 1095.05 1349.7 1095.05C1351.98 1095.05 1353.85 1093.59 1353.85 1091.8C1353.85 1090.01 1355.71 1088.08 1357.99 1087.51C1360.27 1086.95 1362.13 1085.02 1362.13 1083.23C1362.13 1081.44 1363.53 1079.98 1365.24 1079.98C1366.95 1079.97 1373.71 1075.83 1380.25 1070.77C1386.8 1065.71 1393.79 1061.57 1395.79 1061.57C1397.79 1061.57 1399.43 1060.06 1399.43 1058.22C1399.43 1056.38 1400.98 1054.87 1402.87 1054.87C1404.76 1054.87 1408.96 1052.8 1412.19 1050.27C1415.43 1047.74 1424.13 1041.26 1431.54 1035.88C1438.95 1030.5 1445.01 1024.66 1445.01 1022.9C1445.01 1021.15 1446.87 1019.72 1449.15 1019.72C1451.43 1019.72 1453.3 1017.83 1453.3 1015.53C1453.3 1013.23 1454.87 1011.35 1456.79 1011.35C1458.72 1011.35 1467.58 1005.7 1476.48 998.794C1485.38 991.89 1494.06 986.24 1495.77 986.239C1497.48 986.237 1498.88 984.729 1498.88 982.887C1498.88 981.046 1500.74 979.539 1503.02 979.539C1505.3 979.539 1507.17 978.033 1507.17 976.191C1507.17 974.35 1509.03 972.843 1511.31 972.843C1513.59 972.843 1515.45 970.96 1515.45 968.658C1515.45 966.356 1516.87 964.473 1518.61 964.473C1520.35 964.473 1523.62 963.078 1525.87 961.373C1545.05 946.832 1552.75 939.963 1552.75 937.375C1552.75 935.706 1554.61 934.34 1556.89 934.34C1559.17 934.34 1561.03 931.327 1561.03 927.644C1561.03 923.961 1562.9 920.948 1565.18 920.948C1567.69 920.948 1569.32 913.694 1569.32 902.533C1569.32 891.373 1567.69 884.119 1565.18 884.119C1562.9 884.119 1561.03 882.612 1561.03 880.771C1561.03 878.929 1559.17 877.423 1556.89 877.423C1554.61 877.423 1552.75 875.916 1552.75 874.075C1552.75 872.234 1551.2 870.727 1549.3 870.727C1547.41 870.727 1543.37 868.843 1540.32 866.542C1537.27 864.24 1533.04 862.357 1530.92 862.357C1528.8 862.357 1522.12 860.284 1516.08 857.753C1510.04 855.22 1500.43 852.287 1494.73 851.234C1476.29 847.824 1446.99 843.942 1439.69 843.942C1435.78 843.942 1432.58 843.189 1432.58 842.268C1432.58 841.347 1426.98 840.594 1420.15 840.594C1413.31 840.594 1407.71 839.841 1407.71 838.92C1407.71 837.999 1397.46 837.246 1384.92 837.246C1372.39 837.246 1362.13 836.493 1362.13 835.572C1362.13 834.542 1341.41 833.898 1308.26 833.898C1275.11 833.898 1254.4 834.542 1254.4 835.572C1254.4 836.493 1246.94 837.246 1237.82 837.246C1228.7 837.246 1221.25 837.999 1221.25 838.92C1221.25 839.841 1216.58 840.594 1210.89 840.594C1205.19 840.594 1200.53 841.347 1200.53 842.268C1200.53 843.189 1197.79 843.942 1194.45 843.942C1186.04 843.942 1159.09 849.282 1159.09 850.948C1159.09 851.698 1157.16 852.312 1154.81 852.312C1140.18 852.312 1084.5 883.413 1084.5 891.585C1084.5 893.003 1082.64 894.163 1080.36 894.163C1077.69 894.163 1076.21 911.741 1076.21 943.547C1076.21 975.354 1074.74 992.932 1072.07 992.932C1069.79 992.932 1067.93 994.614 1067.93 996.671C1067.93 998.729 1062.96 1004.57 1056.9 1009.65C1050.83 1014.72 1044.3 1020.19 1042.39 1021.79C1040.48 1023.38 1038.92 1025.52 1038.92 1026.53C1038.92 1029.76 991.904 1046.76 975.748 1049.37C967.191 1050.75 960.188 1052.56 960.188 1053.38C960.188 1054.2 948.067 1054.87 933.253 1054.87C918.058 1054.87 906.319 1055.6 906.319 1056.55C906.319 1057.48 894.882 1058.22 880.3 1058.22C859.034 1058.22 853.187 1057.61 848.306 1054.87C845.02 1053.03 839.832 1051.52 836.774 1051.52C823.514 1051.52 791.288 1046.02 785.859 1042.83C782.602 1040.91 775.736 1037.6 770.61 1035.46C765.48 1033.33 761.287 1030.42 761.287 1029C761.287 1027.58 759.422 1026.41 757.143 1026.41C754.864 1026.41 752.999 1025.28 752.999 1023.9C752.999 1022.52 751.35 1021.39 749.34 1021.39C747.326 1021.39 744.679 1019.69 743.46 1017.62C742.242 1015.55 738.376 1010.84 734.87 1007.16C731.369 1003.48 728.539 995.945 728.584 990.42C728.671 980.023 736.337 962.277 741.67 960.122C743.344 959.446 744.712 957.512 744.712 955.823C744.712 954.136 746.576 952.755 748.856 952.755C751.135 952.755 752.999 951.248 752.999 949.407C752.999 947.565 754.864 946.058 757.143 946.058C759.422 946.058 761.287 944.552 761.287 942.71C761.287 940.869 762.89 939.362 764.855 939.362C766.815 939.362 774.41 934.821 781.732 929.271C789.058 923.72 799.571 917.352 805.103 915.117C810.631 912.884 815.156 910.435 815.156 909.678C815.156 907.53 831.13 902.533 837.992 902.533C841.386 902.533 844.162 901.78 844.162 900.859C844.162 899.939 847.892 899.185 852.45 899.185C857.008 899.185 860.737 898.546 860.737 897.766C860.737 896.984 868.234 894.98 877.395 893.311C886.557 891.642 899.593 888.138 906.364 885.523C913.135 882.91 921.489 880.771 924.928 880.771C928.368 880.771 931.182 880.18 931.182 879.458C931.182 878.735 937.244 876.706 944.649 874.947C952.054 873.189 964.961 868.884 973.332 865.38C981.698 861.876 989.671 859.008 991.051 859.008C992.431 859.008 1001.95 855.619 1012.2 851.475C1022.46 847.332 1032.38 843.942 1034.25 843.942C1036.13 843.942 1041.11 840.854 1045.32 837.079C1049.54 833.304 1061.61 826.654 1072.17 822.3C1082.72 817.946 1092.48 813.204 1093.85 811.762C1095.22 810.321 1103.46 806.998 1112.17 804.38C1120.88 801.76 1131.03 798.291 1134.71 796.669C1138.4 795.047 1145.39 793.721 1150.25 793.721C1155.11 793.721 1159.09 792.968 1159.09 792.047C1159.09 791.126 1161.79 790.373 1165.1 790.373C1168.4 790.373 1172.6 789.342 1174.42 788.079C1179.55 784.525 1211.2 778.654 1225.22 778.654C1232.15 778.654 1237.82 777.901 1237.82 776.981C1237.82 775.966 1255.77 775.307 1283.4 775.307C1311.03 775.307 1328.98 775.966 1328.98 776.981C1328.98 777.901 1336.44 778.654 1345.56 778.654C1354.67 778.654 1362.13 779.408 1362.13 780.329C1362.13 781.249 1365.5 782.003 1369.61 782.003C1378.17 782.003 1421.52 790.323 1423.6 792.365C1424.36 793.112 1429.49 793.721 1434.99 793.721C1440.5 793.721 1445.01 794.474 1445.01 795.395C1445.01 796.316 1448.33 797.069 1452.38 797.069C1456.44 797.069 1462.44 798.576 1465.73 800.417C1469.01 802.259 1473.64 803.765 1476.01 803.765C1478.38 803.765 1485.34 805.649 1491.49 807.95C1497.63 810.252 1505.13 812.135 1508.14 812.135C1511.16 812.135 1516.31 813.642 1519.6 815.483C1522.88 817.325 1528.78 818.832 1532.7 818.832C1536.62 818.832 1540.98 819.585 1542.39 820.505C1543.8 821.426 1548.41 822.18 1552.65 822.18C1556.88 822.18 1561.12 823.122 1562.07 824.272C1564.5 827.215 1636.3 827.215 1638.73 824.272C1639.68 823.122 1644.23 822.18 1648.84 822.18C1657.66 822.18 1700.22 805.158 1704.31 799.999C1705.58 798.388 1708.36 797.069 1710.49 797.069C1712.61 797.069 1714.35 794.809 1714.35 792.047C1714.35 789.285 1716.22 787.025 1718.5 787.025C1720.8 787.025 1722.64 782.56 1722.64 776.981C1722.64 771.401 1724.48 766.936 1726.79 766.936C1729.28 766.936 1730.93 759.961 1730.93 749.359C1730.93 738.757 1729.28 731.782 1726.79 731.782C1724.45 731.782 1722.64 727.039 1722.64 720.9C1722.64 714.761 1720.83 710.019 1718.5 710.019C1716.22 710.019 1714.35 707.722 1714.35 704.913C1714.35 699.357 1704.61 690.567 1694.03 686.582C1690.36 685.201 1684.73 681.999 1681.51 679.468C1678.29 676.935 1674.11 674.864 1672.22 674.864C1670.32 674.864 1668.77 674.084 1668.77 673.13C1668.77 671.367 1660.82 667.421 1636.66 657.19C1629.25 654.052 1623.19 651.043 1623.19 650.5C1623.19 649.149 1612 644.731 1608.58 644.731C1607.05 644.731 1600.68 642.517 1594.42 639.811C1588.16 637.104 1572.74 632.919 1560.14 630.509C1547.54 628.1 1533.34 624.663 1528.59 622.873C1523.83 621.086 1516.06 619.621 1511.31 619.621C1506.56 619.621 1498.67 618.114 1493.78 616.273C1488.89 614.431 1482.42 612.925 1479.41 612.925C1476.39 612.925 1464.65 610.288 1453.3 607.066C1441.95 603.843 1430.78 601.206 1428.47 601.206C1426.18 601.206 1424.29 600.453 1424.29 599.532C1424.29 598.612 1420.56 597.858 1416 597.858C1411.44 597.858 1407.71 597.105 1407.71 596.184C1407.71 595.263 1403.99 594.51 1399.43 594.51C1394.87 594.51 1391.14 593.946 1391.13 593.255C1391.12 592.563 1380.87 589.835 1368.34 587.19C1355.81 584.545 1345.56 581.721 1345.56 580.912C1345.56 580.105 1340.9 579.444 1335.2 579.444C1329.5 579.444 1324.84 578.69 1324.84 577.77C1324.84 576.849 1322.17 576.096 1318.9 576.096C1315.64 576.096 1311.91 574.757 1310.63 573.121C1309.35 571.485 1304.28 569.038 1299.37 567.68C1294.47 566.324 1282.39 562.012 1272.53 558.1C1262.68 554.188 1252.7 550.985 1250.36 550.985C1248.02 550.985 1246.11 549.855 1246.11 548.474C1246.11 547.093 1244.24 545.963 1241.96 545.963C1239.68 545.963 1237.82 544.833 1237.82 543.452C1237.82 542.071 1235.96 540.941 1233.68 540.941C1231.4 540.941 1229.53 540.154 1229.53 539.192C1229.53 537.323 1210.92 529.223 1206.63 529.223C1202.42 529.223 1192.24 524.572 1192.24 522.645C1192.24 521.659 1190.37 520.852 1188.09 520.852C1185.82 520.852 1183.95 519.346 1183.95 517.504C1183.95 515.663 1182.09 514.156 1179.81 514.156C1177.53 514.156 1175.66 512.65 1175.66 510.808C1175.66 508.967 1173.8 507.46 1171.52 507.46C1169.24 507.46 1167.38 506.69 1167.38 505.751C1167.38 503.719 1145.95 490.127 1141.48 489.325C1139.77 489.017 1138.37 487.323 1138.37 485.559C1138.37 483.792 1136.51 482.35 1134.23 482.35C1131.95 482.35 1130.08 481.601 1130.08 480.689C1130.08 479.248 1122.65 475.218 1107.27 468.316C1104.98 467.288 1098.45 462.68 1092.76 458.076C1087.08 453.472 1081.03 449.455 1079.32 449.148C1077.61 448.84 1076.21 447.146 1076.21 445.382C1076.21 443.616 1074.35 442.173 1072.07 442.173C1069.79 442.173 1067.93 441.379 1067.93 440.41C1067.93 439.441 1063.26 435.875 1057.57 432.488C1051.87 429.1 1047.21 424.997 1047.21 423.37C1047.21 421.743 1045.34 420.41 1043.06 420.41C1040.78 420.41 1038.92 418.903 1038.92 417.062C1038.92 415.22 1037.05 413.714 1034.78 413.714C1032.5 413.714 1030.63 412.584 1030.63 411.203C1030.63 409.822 1028.77 408.692 1026.49 408.692C1024.21 408.692 1022.34 407.185 1022.34 405.344C1022.34 403.502 1020.48 401.996 1018.2 401.996C1015.92 401.996 1014.06 400.489 1014.06 398.647C1014.06 396.806 1012.19 395.299 1009.91 395.299C1007.63 395.299 1005.77 394.529 1005.77 393.59C1005.77 391.558 984.342 377.966 979.871 377.165C978.163 376.856 976.763 375.162 976.763 373.398C976.763 371.632 974.898 370.189 972.619 370.189C970.34 370.189 968.475 369.409 968.475 368.454C968.475 367.502 964.642 365.053 959.96 363.014C950.355 358.834 922.894 340.435 922.894 338.18C922.894 337.369 921.029 336.708 918.75 336.708C916.471 336.708 914.606 334.825 914.606 332.523C914.606 330.221 912.742 328.338 910.463 328.338C908.184 328.338 906.319 326.423 906.319 324.083C906.319 319.601 904.172 318.247 882.492 309.051C875.083 305.909 869.025 302.561 869.025 301.608C869.025 300.658 867.16 299.879 864.881 299.879C862.602 299.879 860.737 298.373 860.737 296.531C860.737 294.69 858.873 293.183 856.594 293.183C854.314 293.183 852.45 291.676 852.45 289.835C852.45 287.993 851.049 286.485 849.342 286.483C847.635 286.482 840.64 283.109 833.803 278.987C826.966 274.866 819.971 271.477 818.264 271.457C816.556 271.437 815.156 269.914 815.156 268.072C815.156 266.231 813.291 264.724 811.012 264.724C808.733 264.724 806.868 263.87 806.868 262.828C806.868 261.785 803.454 259.714 799.277 258.224C795.1 256.736 784.616 250.055 775.972 243.38C767.333 236.704 758.627 231.244 756.629 231.244C754.632 231.244 752.999 230.08 752.999 228.657C752.999 227.234 748.802 224.367 743.676 222.284C738.546 220.203 729.691 215.722 723.993 212.329C718.295 208.934 711.168 206.152 708.16 206.145C702.619 206.133 690.843 202.192 690.843 200.349C690.843 199.355 672.436 190.725 654.585 183.351C649.455 181.233 645.261 178.729 645.261 177.787C645.261 176.842 635.034 172.1 622.537 167.247C592.718 155.669 593.269 155.84 564.458 149.207C550.783 146.06 529.642 139.501 517.476 134.632C505.314 129.764 493.139 125.779 490.421 125.779C487.707 125.779 482.796 124.272 479.51 122.431C476.224 120.589 471.074 119.083 468.061 119.083C465.053 119.083 458.584 117.576 453.695 115.735C448.801 113.893 441.421 112.387 437.29 112.387C433.162 112.387 429.785 111.752 429.785 110.975C429.785 110.2 423.259 108.146 415.282 106.41C407.305 104.674 400.779 102.674 400.779 101.962C400.779 101.251 397.049 100.668 392.491 100.668C387.933 100.668 384.204 99.915 384.204 98.9942C384.204 98.0735 380.474 97.3204 375.916 97.3204C371.358 97.3204 367.629 96.5669 367.629 95.6462C367.629 94.7255 362.146 93.9723 355.442 93.9723C348.737 93.9723 342.103 93.2188 340.694 92.298C339.285 91.3773 334.516 90.6242 330.09 90.6242C325.665 90.6242 322.047 89.9411 322.047 89.1057C322.047 88.2704 311.791 86.2851 299.256 84.6914C286.722 83.0994 276.466 81.1459 276.466 80.3507C276.466 79.5556 272.736 78.906 268.178 78.906C263.62 78.906 259.891 78.1524 259.891 77.2317C259.891 76.311 254.297 75.5579 247.459 75.5579C240.622 75.5579 235.028 74.8044 235.028 73.8837C235.028 72.9629 228.502 72.2098 220.525 72.2098C212.548 72.2098 206.022 71.5351 206.022 70.7115C206.022 69.8878 199.031 68.8448 190.482 68.3928C181.938 67.9425 164.688 66.3206 152.153 64.7871C126.689 61.6734 93.6757 59.015 64.0975 57.6975L44.4146 56.8203V0L53.5682 1.17352C61.7563 2.22315 74.5522 3.10864 128.326 6.33953C136.875 6.85346 143.865 7.94824 143.865 8.77187C143.865 9.5955 153.189 10.2702 164.584 10.2702C175.979 10.2702 185.303 10.938 185.303 11.755C185.303 12.5702 190.429 13.6555 196.698 14.1644C224.78 16.4444 233.495 17.3062 241.244 18.5668C245.802 19.3067 257.922 21.2118 268.178 22.7971C278.434 24.3824 290.061 26.3562 294.019 27.1832C297.976 28.0085 305.903 28.6846 311.63 28.6846C317.361 28.6846 322.047 29.4379 322.047 30.3586C322.047 31.2794 325.777 32.0326 330.335 32.0326C334.893 32.0326 338.622 32.7861 338.622 33.7068C338.622 34.6275 342.24 35.3808 346.665 35.3808C351.091 35.3808 355.86 36.1341 357.269 37.0548C358.678 37.9756 362.631 38.729 366.058 38.729C373.998 38.729 418.974 47.2147 420.806 49.0578C421.568 49.8229 427.626 50.4473 434.273 50.4473C440.924 50.4473 446.36 51.2006 446.36 52.1213C446.36 53.0421 448.304 53.7952 450.678 53.7952C453.052 53.7952 458.999 55.3019 463.888 57.1433C468.782 58.9848 475.23 60.4915 478.222 60.4915C481.209 60.4915 483.654 61.1625 483.654 61.9845C483.654 62.8048 487.852 63.9183 492.978 64.4573C498.108 64.9947 508.26 67.7134 515.545 70.4974C522.825 73.2813 530.595 75.5579 532.808 75.5579C535.02 75.5579 537.453 76.1236 538.215 76.8133C538.974 77.5047 550.783 81.0822 564.458 84.7651C578.132 88.448 589.942 92.027 590.7 92.7167C591.463 93.408 596.589 93.9723 602.096 93.9723C607.607 93.9723 612.111 94.7255 612.111 95.6462C612.111 96.5669 614.908 97.3204 618.327 97.3204C621.745 97.3204 624.542 98.0735 624.542 98.9942C624.542 99.915 626.49 100.668 628.869 100.668C631.247 100.668 643.206 104.812 655.443 109.876C667.679 114.94 678.714 119.083 679.961 119.083C681.204 119.083 691.514 122.662 702.864 127.035C747.873 144.376 770.573 152.564 773.639 152.564C775.409 152.564 779.292 154.938 782.263 157.837C785.238 160.738 793.853 165.61 801.415 168.663C808.973 171.717 815.16 175.182 815.16 176.364C815.164 178.423 825.938 184.366 843.98 192.262C848.638 194.301 852.45 196.447 852.45 197.031C852.45 197.615 857.7 200.091 864.115 202.532C870.533 204.973 881.083 210.924 887.564 215.759C894.045 220.593 900.915 224.548 902.834 224.548C904.753 224.548 906.319 226.431 906.319 228.733C906.319 231.034 908.184 232.918 910.463 232.918C912.742 232.918 914.606 234.828 914.606 237.163C914.606 239.497 918.377 243.076 922.989 245.115C948.486 256.386 960.006 262.491 960.093 264.773C960.146 266.181 963.917 268.419 968.475 269.746C973.034 271.074 976.763 273.5 976.763 275.138C976.763 276.776 978.226 278.117 980.016 278.117C981.806 278.117 988.796 282.257 995.555 287.319C1002.31 292.379 1009.24 296.523 1010.95 296.526C1012.66 296.528 1014.06 298.038 1014.06 299.879C1014.06 301.721 1015.92 303.227 1018.2 303.227C1020.48 303.227 1022.34 304.081 1022.34 305.124C1022.34 306.167 1026.07 308.325 1030.62 309.918C1035.17 311.512 1041.76 316.121 1045.27 320.159C1054.94 331.298 1061.33 336.708 1064.79 336.708C1066.52 336.708 1067.93 338.215 1067.93 340.056C1067.93 341.897 1069.79 343.404 1072.07 343.404C1074.35 343.404 1076.21 344.911 1076.21 346.752C1076.21 348.594 1078.08 350.1 1080.36 350.1C1082.64 350.1 1084.5 351.23 1084.5 352.611C1084.5 353.992 1086.37 355.123 1088.64 355.123C1090.92 355.123 1092.79 356.284 1092.79 357.704C1092.79 359.124 1096.25 361.785 1100.48 363.618C1104.71 365.451 1111.7 369.931 1116.01 373.574C1120.33 377.215 1125.26 380.203 1126.97 380.215C1128.69 380.225 1130.08 381.74 1130.08 383.581C1130.08 385.423 1131.95 386.929 1134.23 386.929C1136.51 386.929 1138.37 387.929 1138.37 389.151C1138.37 392.171 1174.97 419.432 1179.96 420.13C1182.15 420.439 1183.95 422.886 1183.95 425.571C1183.95 428.256 1185.82 430.454 1188.09 430.454C1190.37 430.454 1192.24 431.961 1192.24 433.802C1192.24 435.644 1194.1 437.151 1196.38 437.151C1198.66 437.151 1200.53 438.227 1200.53 439.543C1200.53 440.857 1202.96 442.929 1205.94 444.146C1208.91 445.362 1215.9 449.748 1221.48 453.891C1227.05 458.034 1233 461.675 1234.71 461.982C1236.42 462.29 1237.82 463.229 1237.82 464.071C1237.82 464.913 1245.28 468.801 1254.4 472.712C1263.51 476.621 1270.97 480.364 1270.97 481.029C1270.97 481.693 1277.5 484.874 1285.47 488.097C1293.45 491.319 1299.98 494.374 1299.98 494.885C1299.98 499.905 1358.01 525.875 1369.23 525.875C1372.16 525.875 1374.56 526.628 1374.56 527.549C1374.56 528.469 1377.38 529.223 1380.82 529.223C1384.26 529.223 1392.93 531.483 1400.08 534.245C1407.23 537.007 1414.68 539.267 1416.62 539.267C1418.56 539.267 1423.57 540.584 1427.75 542.196C1431.93 543.807 1439.65 546.256 1444.9 547.637C1450.15 549.018 1458.76 551.842 1464.04 553.915C1469.32 555.986 1476.17 557.681 1479.26 557.681C1482.35 557.681 1488.89 559.188 1493.78 561.029C1498.67 562.871 1505.12 564.378 1508.1 564.378C1511.09 564.378 1520.39 566.261 1528.78 568.563C1537.16 570.864 1545.98 572.747 1548.38 572.747C1550.78 572.747 1552.75 573.501 1552.75 574.422C1552.75 575.342 1558.34 576.096 1565.18 576.096C1572.02 576.096 1577.61 576.849 1577.61 577.77C1577.61 578.69 1579.45 579.444 1581.71 579.444C1583.97 579.444 1598.9 582.834 1614.9 586.977C1630.9 591.12 1645.43 594.51 1647.18 594.51C1648.93 594.51 1653.06 596.017 1656.34 597.858C1659.63 599.7 1664.65 601.206 1667.51 601.206C1674.01 601.206 1722.64 620.27 1722.64 622.817C1722.64 623.846 1731.77 628.356 1742.92 632.839C1754.08 637.322 1764.46 642.585 1766 644.536C1767.53 646.484 1770.52 648.079 1772.64 648.079C1774.77 648.079 1776.51 649.21 1776.51 650.591C1776.51 651.972 1778.38 653.102 1780.65 653.102C1782.93 653.102 1784.8 654.608 1784.8 656.45C1784.8 658.291 1786.66 659.798 1788.94 659.798C1791.22 659.798 1793.09 661.304 1793.09 663.146C1793.09 664.987 1794.95 666.494 1797.23 666.494C1799.51 666.494 1801.37 667.619 1801.37 668.993C1801.37 672.482 1815.08 684.909 1818.93 684.909C1820.67 684.909 1822.09 686.415 1822.09 688.256C1822.09 690.098 1823.96 691.604 1826.24 691.604C1828.51 691.604 1830.38 694.241 1830.38 697.464C1830.38 700.686 1832.24 703.323 1834.52 703.323C1836.8 703.323 1838.67 706.291 1838.67 709.92C1838.67 713.55 1840.53 716.983 1842.81 717.552C1848.4 718.946 1848.4 781.445 1842.81 782.84C1840.53 783.409 1838.67 785.813 1838.67 788.183C1838.67 790.552 1835.38 793.709 1831.36 795.199C1827.34 796.687 1820.35 800.814 1815.82 804.368C1811.29 807.92 1800.6 813.851 1792.05 817.548C1783.5 821.244 1776.51 824.933 1776.51 825.749C1776.51 826.562 1762.99 832.701 1746.47 839.387C1728.44 846.682 1711.76 855.371 1704.75 861.108C1698.33 866.366 1691.34 871.102 1689.21 871.632C1687.09 872.165 1685.35 874.436 1685.35 876.685C1685.35 878.933 1683.48 880.771 1681.2 880.771C1678.92 880.771 1677.06 883.407 1677.06 886.63C1677.06 889.853 1675.2 892.489 1672.92 892.489C1670.45 892.489 1668.77 898.906 1668.77 908.393C1668.77 917.879 1667.1 924.296 1664.63 924.296C1662.35 924.296 1660.48 928.575 1660.48 933.803C1660.48 939.031 1658.66 945.623 1656.43 948.451C1638.71 970.928 1630.39 980.788 1627.07 983.282C1624.94 984.881 1623.19 987.707 1623.19 989.56C1623.19 991.415 1621.33 992.932 1619.05 992.932C1616.77 992.932 1614.9 994.438 1614.9 996.28C1614.9 998.121 1613.04 999.628 1610.76 999.628C1608.48 999.628 1606.62 1000.45 1606.62 1001.46C1606.62 1002.47 1603.22 1005.3 1599.07 1007.74C1590.16 1012.98 1577.61 1026.14 1577.61 1030.23C1577.61 1031.82 1575.74 1033.11 1573.47 1033.11C1571.19 1033.11 1569.32 1034.62 1569.32 1036.46C1569.32 1038.3 1567.46 1039.8 1565.18 1039.8C1562.9 1039.8 1561.03 1040.93 1561.03 1042.32C1561.03 1043.7 1559.17 1044.83 1556.89 1044.83C1554.61 1044.83 1552.75 1045.99 1552.75 1047.41C1552.75 1048.83 1550.86 1050.9 1548.54 1052.01C1539.85 1056.19 1523.74 1066.8 1523.74 1068.34C1523.74 1069.22 1521.88 1069.94 1519.6 1069.94C1517.32 1069.94 1515.45 1071.28 1515.45 1072.92C1515.45 1074.55 1511.72 1076.98 1507.17 1078.31C1502.61 1079.64 1498.88 1081.55 1498.88 1082.57C1498.88 1083.59 1490.49 1090.71 1480.23 1098.4C1469.98 1106.08 1461.58 1113.37 1461.58 1114.59C1461.58 1115.81 1459.72 1116.81 1457.44 1116.81C1455.16 1116.81 1453.3 1118.32 1453.3 1120.16C1453.3 1122 1451.43 1123.51 1449.15 1123.51C1446.87 1123.51 1445.01 1124.65 1445.01 1126.04C1445.01 1129.26 1428.4 1143.73 1421.35 1146.64C1418.41 1147.86 1416 1149.93 1416 1151.25C1416 1152.56 1414.14 1153.64 1411.86 1153.64C1409.58 1153.64 1407.71 1155.15 1407.71 1156.99C1407.71 1158.83 1405.85 1160.34 1403.57 1160.34C1401.29 1160.34 1399.43 1161.47 1399.43 1162.86C1399.43 1164.25 1393.89 1167.73 1387.12 1170.59C1380.35 1173.45 1373.7 1177.21 1372.34 1178.94C1370.98 1180.68 1368.35 1182.1 1366.5 1182.1C1364.65 1182.1 1360.82 1184.36 1357.99 1187.12C1355.16 1189.88 1351.2 1192.14 1349.2 1192.14C1347.19 1192.14 1345.56 1192.93 1345.56 1193.89C1345.56 1194.85 1341.22 1197.39 1335.92 1199.53C1330.62 1201.68 1323.87 1205.78 1320.92 1208.67C1317.96 1211.55 1313.91 1213.9 1311.91 1213.9C1309.9 1213.9 1308.26 1214.9 1308.26 1216.11C1308.26 1218.65 1289.71 1225.62 1282.96 1225.62C1280.47 1225.62 1273.21 1227.88 1266.83 1230.65C1260.44 1233.41 1253.85 1235.67 1252.18 1235.67C1250.52 1235.67 1246.14 1237.06 1242.45 1238.75C1234.68 1242.32 1198.52 1250.73 1190.93 1250.73C1188.1 1250.73 1183.09 1252.24 1179.81 1254.08C1171.18 1258.92 1160.88 1258.2 1154.88 1252.34C1152.01 1249.55 1146.31 1246.53 1142.22 1245.65C1132.44 1243.54 1106.41 1243.58 1103.15 1245.71C1101.74 1246.63 1096.97 1247.39 1092.54 1247.39C1088.12 1247.39 1084.5 1248.14 1084.5 1249.06C1084.5 1249.98 1078.91 1250.73 1072.07 1250.73C1065.23 1250.73 1059.64 1251.49 1059.64 1252.41C1059.64 1253.33 1056.99 1254.08 1053.76 1254.08C1050.53 1254.08 1042.14 1255.4 1035.14 1257.01C1025.58 1259.21 1022.39 1261.14 1022.37 1264.73L1022.34 1269.53L979.871 1268.58C928.604 1267.43 920.818 1266.88 819.3 1257.27C809.044 1256.3 794.59 1255.1 787.185 1254.61C779.781 1254.12 773.718 1253.12 773.718 1252.4C773.718 1251.68 766.728 1250.68 758.179 1250.18C724.967 1248.25 682.427 1243.94 648.473 1239.07C635.424 1237.2 619.11 1235.67 612.215 1235.67C605.319 1235.67 599.68 1234.91 599.68 1233.99C599.68 1233.05 587.94 1232.32 572.745 1232.32C557.55 1232.32 545.811 1231.59 545.811 1230.65C545.811 1229.57 504.373 1228.97 429.785 1228.97C362.113 1228.97 313.76 1229.61 313.76 1230.51C313.76 1231.35 301.171 1232.41 285.789 1232.85C270.408 1233.29 249.428 1234.44 239.172 1235.4C228.916 1236.36 211.939 1237.9 201.439 1238.82C180.024 1240.7 143.865 1247.34 143.865 1249.39C143.865 1250.13 141.917 1250.73 139.535 1250.73C133.908 1250.73 114.859 1258.43 114.859 1260.7C114.859 1261.67 112.994 1262.45 110.715 1262.45C108.436 1262.45 106.571 1263.96 106.571 1265.8C106.571 1267.64 104.706 1269.15 102.427 1269.15C100.148 1269.15 98.2836 1270.65 98.2836 1272.5C98.2836 1274.34 96.8747 1275.84 95.1509 1275.84C82.819 1275.84 71.3491 1303.67 71.3491 1333.6C71.3491 1356.9 71.4278 1357.09 84.7335 1366.7C100.911 1378.39 115.704 1384.66 127.104 1384.66C131.765 1384.66 135.578 1385.31 135.578 1386.12C135.578 1388.81 178.478 1390.24 257.819 1390.17C346.914 1390.11 417.354 1388.32 417.354 1386.13C417.354 1385.32 439.73 1384.66 467.079 1384.66C494.428 1384.66 516.804 1384 516.804 1383.19C516.804 1381.58 596.825 1379.29 655.621 1379.22C710.845 1379.15 794.437 1381.99 794.437 1383.21C794.437 1384.44 807.179 1384.66 823.443 1384.66C839.708 1384.66 852.45 1385.39 852.45 1386.33C852.45 1387.27 859.807 1388.02 874.205 1388.04C888.602 1388.07 905.005 1390.05 922.703 1393.9C940.401 1397.75 951.863 1399.72 954.817 1399.72C957.772 1399.72 960.188 1400.48 960.188 1401.4C960.188 1402.32 963.917 1403.07 968.475 1403.07C973.034 1403.07 982 1396.94 1036.5 1417.73C1091 1438.51 1863 1313.26 1691.5 1341.43Z" fill="#D9D9D9"/>
</svg>
