<svg width="1466" height="498" viewBox="0 0 1466 498" fill="none" xmlns="http://www.w3.org/2000/svg">
<path d="M0 6.62423H28.7756L56.4833 215.287H57.6699L85.3776 6.62423H114.153L69.8328 319.856V491.139H44.3204V319.856L0 6.62423Z" fill="black"/>
<path d="M128.185 491.139V6.62423H210.062V91.0831H153.875V206.534H205.85V290.993H153.875V406.68H210.299V491.139H128.185Z" fill="black"/>
<path d="M296.404 145.97C295.929 126.886 293.892 112.06 290.293 101.493C286.693 90.9254 281.808 85.6418 275.638 85.6418C271.445 85.6418 267.905 88.0076 265.018 92.7392C262.13 97.3131 259.915 103.701 258.373 111.902C256.87 120.104 256.118 129.409 256.118 139.819C256.039 148.493 256.494 156.064 257.483 162.53C258.511 168.997 259.915 174.596 261.695 179.327C263.475 183.901 265.532 187.923 267.866 191.393C270.199 194.705 272.691 197.544 275.341 199.91L286.258 210.319C291.558 215.051 296.424 221.36 300.854 229.246C305.284 237.132 309.121 246.831 312.364 258.345C315.607 269.858 318.119 283.422 319.899 299.037C321.719 314.651 322.648 332.552 322.688 352.74C322.648 382.391 320.749 408.1 316.992 429.865C313.274 451.473 307.894 468.27 300.854 480.257C293.853 492.085 285.408 498 275.519 498C265.71 498 257.166 492.007 249.888 480.02C242.65 468.033 236.994 450.29 232.919 426.79C228.885 403.132 226.769 373.875 226.571 339.018H251.431C251.708 355.264 252.875 368.827 254.931 379.71C257.028 390.435 259.816 398.558 263.297 404.078C266.817 409.44 270.793 412.122 275.223 412.122C279.574 412.122 283.351 409.598 286.555 404.551C289.798 399.504 292.31 392.485 294.09 383.495C295.87 374.505 296.76 364.175 296.76 352.504C296.76 341.621 295.949 332.473 294.327 325.06C292.745 317.647 290.411 311.339 287.326 306.134C284.281 300.929 280.543 296.198 276.113 291.939L262.882 278.691C252.637 268.754 244.548 253.219 238.615 232.085C232.682 210.95 229.735 182.482 229.775 146.679C229.735 117.343 231.693 91.714 235.649 69.791C239.644 47.8679 245.122 30.7554 252.083 18.4532C259.045 6.15107 266.956 0 275.816 0C284.834 0 292.706 6.15107 299.43 18.4532C306.194 30.7554 311.454 47.8679 315.212 69.791C318.97 91.714 320.908 117.107 321.026 145.97H296.404Z" fill="black"/>
<path d="M354.267 497.29C350.351 497.29 346.989 491.77 344.18 480.73C341.412 469.532 340.027 456.125 340.027 440.511C340.027 425.055 341.412 411.806 344.18 400.766C346.989 389.725 350.351 384.205 354.267 384.205C358.064 384.205 361.386 389.725 364.234 400.766C367.082 411.806 368.506 425.055 368.506 440.511C368.506 450.921 367.834 460.463 366.489 469.137C365.184 477.654 363.463 484.515 361.327 489.72C359.191 494.767 356.838 497.29 354.267 497.29Z" fill="black"/>
<path d="M448.381 6.62423V491.139H422.69V6.62423H448.381Z" fill="black"/>
<path d="M464.89 91.0831V6.62423H564.685V91.0831H527.484V491.139H502.09V91.0831H464.89Z" fill="black"/>
<path d="M601.826 6.62423V57.7254C601.826 72.2356 601.114 87.0613 599.69 102.202C598.306 117.186 596.447 131.381 594.113 144.787C591.779 158.035 589.228 169.312 586.459 178.618L575.305 152.357C577.283 139.897 579.023 126.097 580.526 110.956C582.069 95.8147 582.84 78.229 582.84 58.1986V6.62423H601.826Z" fill="black"/>
<path d="M685.053 145.97C684.578 126.886 682.541 112.06 678.942 101.493C675.342 90.9254 670.457 85.6418 664.287 85.6418C660.094 85.6418 656.554 88.0076 653.667 92.7392C650.779 97.3131 648.564 103.701 647.022 111.902C645.519 120.104 644.767 129.409 644.767 139.819C644.688 148.493 645.143 156.064 646.132 162.53C647.16 168.997 648.564 174.596 650.344 179.327C652.124 183.901 654.181 187.923 656.515 191.393C658.848 194.705 661.34 197.544 663.99 199.91L674.907 210.319C680.208 215.051 685.073 221.36 689.503 229.246C693.933 237.132 697.77 246.831 701.013 258.345C704.256 269.858 706.768 283.422 708.548 299.037C710.368 314.651 711.297 332.552 711.337 352.74C711.297 382.391 709.399 408.1 705.641 429.865C701.923 451.473 696.543 468.27 689.503 480.257C682.502 492.085 674.057 498 664.168 498C654.359 498 645.815 492.007 638.537 480.02C631.299 468.033 625.643 450.29 621.569 426.79C617.534 403.132 615.418 373.875 615.22 339.018H640.08C640.357 355.264 641.524 368.827 643.58 379.71C645.677 390.435 648.465 398.558 651.946 404.078C655.466 409.44 659.442 412.122 663.872 412.122C668.223 412.122 672 409.598 675.204 404.551C678.447 399.504 680.959 392.485 682.739 383.495C684.519 374.505 685.409 364.175 685.409 352.504C685.409 341.621 684.598 332.473 682.976 325.06C681.394 317.647 679.061 311.339 675.975 306.134C672.93 300.929 669.192 296.198 664.762 291.939L651.531 278.691C641.286 268.754 633.197 253.219 627.264 232.085C621.331 210.95 618.384 182.482 618.424 146.679C618.384 117.343 620.342 91.714 624.298 69.791C628.293 47.8679 633.771 30.7554 640.733 18.4532C647.694 6.15107 655.605 0 664.465 0C673.483 0 681.355 6.15107 688.079 18.4532C694.843 30.7554 700.103 47.8679 703.861 69.791C707.619 91.714 709.557 117.107 709.675 145.97H685.053Z" fill="black"/>
<path d="M762.658 91.0831V6.62423H862.453V91.0831H825.253V491.139H799.859V91.0831H762.658Z" fill="black"/>
<path d="M878.888 491.139V6.62423H960.765V91.0831H904.578V206.534H956.553V290.993H904.578V406.68H961.002V491.139H878.888Z" fill="black"/>
<path d="M1088.4 176.252H1062.41C1061.94 162.846 1060.97 150.938 1059.51 140.528C1058.04 129.961 1056.16 120.971 1053.87 113.558C1051.58 106.145 1048.93 100.467 1045.92 96.5245C1042.95 92.5815 1039.73 90.61 1036.25 90.61C1029.96 90.61 1024.48 96.8399 1019.81 109.3C1015.15 121.602 1011.53 139.582 1008.96 163.24C1006.39 186.74 1005.1 215.287 1005.1 248.882C1005.1 283.422 1006.39 312.443 1008.96 335.943C1011.57 359.443 1015.21 377.187 1019.87 389.173C1024.54 401.16 1029.94 407.153 1036.07 407.153C1039.51 407.153 1042.7 405.34 1045.62 401.712C1048.59 398.085 1051.22 392.801 1053.51 385.861C1055.81 378.764 1057.71 370.168 1059.21 360.074C1060.75 349.98 1061.82 338.466 1062.41 325.533L1088.4 326.007C1087.73 348.245 1086.05 369.695 1083.36 390.356C1080.71 410.86 1077.13 429.234 1072.62 445.479C1068.15 461.567 1062.81 474.342 1056.6 483.805C1050.43 493.111 1043.45 497.763 1035.66 497.763C1024.82 497.763 1015.13 487.985 1006.58 468.428C998.079 448.87 991.355 420.56 986.411 383.495C981.506 346.431 979.054 301.56 979.054 248.882C979.054 196.046 981.546 151.095 986.53 114.031C991.513 76.9672 998.277 48.7354 1006.82 29.3359C1015.36 9.77863 1024.98 0 1035.66 0C1042.7 0 1049.22 3.94299 1055.24 11.829C1061.29 19.715 1066.65 31.2285 1071.31 46.3696C1075.98 61.353 1079.78 79.7273 1082.71 101.493C1085.67 123.258 1087.57 148.178 1088.4 176.252Z" fill="black"/>
<path d="M1106.82 491.139V6.62423H1132.51V206.534H1184.67V6.62423H1210.3V491.139H1184.67V290.993H1132.51V491.139H1106.82Z" fill="black"/>
<path d="M1333.11 6.62423V491.139H1310.92L1258.06 186.188H1257.17V491.139H1231.48V6.62423H1254.02L1306.47 311.339H1307.54V6.62423H1333.11Z" fill="black"/>
<path d="M1466 248.882C1466 301.718 1463.49 346.668 1458.46 383.732C1453.48 420.796 1446.68 449.107 1438.05 468.664C1429.47 488.064 1419.82 497.763 1409.1 497.763C1398.3 497.763 1388.61 487.985 1380.03 468.428C1371.45 448.87 1364.66 420.56 1359.68 383.495C1354.69 346.431 1352.2 301.56 1352.2 248.882C1352.2 196.046 1354.69 151.095 1359.68 114.031C1364.66 76.9672 1371.45 48.7354 1380.03 29.3359C1388.61 9.77863 1398.3 0 1409.1 0C1419.82 0 1429.47 9.77863 1438.05 29.3359C1446.68 48.7354 1453.48 76.9672 1458.46 114.031C1463.49 151.095 1466 196.046 1466 248.882ZM1439.95 248.882C1439.95 214.657 1438.67 185.794 1436.1 162.294C1433.57 138.793 1429.99 120.971 1425.36 108.827C1420.73 96.6822 1415.31 90.61 1409.1 90.61C1402.89 90.61 1397.47 96.6822 1392.84 108.827C1388.22 120.971 1384.62 138.793 1382.05 162.294C1379.51 185.794 1378.25 214.657 1378.25 248.882C1378.25 283.107 1379.51 311.97 1382.05 335.47C1384.62 358.97 1388.22 376.792 1392.84 388.937C1397.47 401.081 1402.89 407.153 1409.1 407.153C1415.31 407.153 1420.73 401.081 1425.36 388.937C1429.99 376.792 1433.57 358.97 1436.1 335.47C1438.67 311.97 1439.95 283.107 1439.95 248.882Z" fill="black"/>
</svg>
